# xmcd
#
# Track frame offsets: 
#        150
#        25867
#        46563
#        78655
#        113374
#        142341
#        167525
#        198389
#        221735
#        243883
#        260858
#        275944
#        290651
#        302977
#        323892
#
# Disc length: 4684 seconds
#
# Revision: 0
# Processed by: cddbd v1.5.2PL0 Copyright (c) Steve Scherf et al.
# Submitted via: ExactAudioCopy v0.90b4
#
DISCID=e5124a0f
DTITLE=Various Artist - This Is The Blues Volume 3
DYEAR=2010
DGENRE=Blues
TTITLE0=Peter Green Splinter Group - Crawlin' King Snake
TTITLE1=Dave Peverett, Rod Price and Southside Johnny - If You Be My Bab
TTITLE1=y
TTITLE2=LLC - Bad Like Jesse James
TTITLE3=Savoy Brown - Little Red Rooster
TTITLE4=Gary Moore and Jack Bruce - Serve Me Right To Suffer
TTITLE5=Gary Brooker and Andy Fairweather-Low - Little Wheel
TTITLE6=Rory Gallagher - Showbiz Blues
TTITLE7=Mick Clarke and Lou Martin - One More Mile
TTITLE8=Clem Clempson and Jack Bruce - I've Got News For You
TTITLE9=Mick Abrahams - The Same Way
TTITLE10=Clas Yngstrom, Ulf Ivarsson, Christer Bjorklund and Frank Marst
TTITLE10=okk - The Supernatural
TTITLE11=Ken Hensley - Hellbound On My Trail
TTITLE12=Larry Mitchell and Stu Hamm - Fleetwood Mac
TTITLE13=Luther Grosvenor - Merry Go Round
TTITLE14=Jeff Beck - Will The Circle Be Unbroken
EXTD=
EXTT0=
EXTT1=
EXTT2=
EXTT3=
EXTT4=
EXTT5=
EXTT6=
EXTT7=
EXTT8=
EXTT9=
EXTT10=
EXTT11=
EXTT12=
EXTT13=
EXTT14=
PLAYORDER=
